<svg id="carolinalogo" xmlns="http://www.w3.org/2000/svg" viewBox="0 0 390 144">
  <path d="M52.47692,77.23l-.02184-.02184a15.5573,15.5573,0,1,1,.02184-19.42775l.01092-.01092c2.01667-3.09417,3.78581-5.68963,5.82068-8.61635a25.73424,25.73424,0,1,0-.0364,36.68957c-1.90747-2.79567-3.65476-5.38386-5.7952-8.61271" style="fill:#796e65"/>
  <path d="M84.94277,83.02048a15.54,15.54,0,1,1,15.54366-15.53637A15.55108,15.55108,0,0,1,84.94277,83.02048m15.54366-40.18416V47.059a25.70535,25.70535,0,1,0,0,40.84668v4.50293h10.15979V42.83632Z" style="fill:#796e65"/>
  <path d="M326.25818,83.02048a15.54,15.54,0,1,1,15.54367-15.53637,15.55109,15.55109,0,0,1-15.54367,15.53637m15.54367-40.18416V47.059a25.70535,25.70535,0,1,0,0,40.84668v4.50293h10.15977V42.83632Z" style="fill:#796e65"/>
  <path d="M143.98972,42.80464s6.35943-.648,10.69855,3.09054l-5.71875,8.86753s-1.36509-2.14408-5.43482-2.05308c-12.77346.27665-13.30857,20.55621-13.30857,20.55621V92.406h-11.139V42.83741h11.139V54.11474a15.98928,15.98928,0,0,1,13.76359-11.3101" style="fill:#796e65"/>
  <path d="M178.24692,51.92444a15.56,15.56,0,1,0,15.56185,15.55822,15.57751,15.57751,0,0,0-15.56185-15.55822m0,41.29079a25.7344,25.7344,0,1,1,25.73256-25.73257,25.76339,25.76339,0,0,1-25.73256,25.73257" style="fill:#796e65"/>
  <rect x="210.19806" y="24.99678" width="10.96429" height="67.40923" style="fill:#796e65"/>
  <path d="M236.02782,24.99569a5.48215,5.48215,0,1,0,5.48578,5.48578,5.48482,5.48482,0,0,0-5.48578-5.48578" style="fill:#796e65"/>
  <rect x="230.53948" y="42.83012" width="10.96792" height="49.5322" style="fill:#796e65"/>
  <path d="M250.81723,42.83522h11.14264v8.42343c3.12694-4.51021,7.63714-8.47075,15.18691-8.47075,10.95337,0,17.30916,7.36777,17.30916,18.59778V92.4111H283.31328V64.79291c0-7.55342-3.77124-11.88161-10.4-11.88161-6.44317,0-10.95337,4.51385-10.95337,12.06362V92.4111H250.81723Z" style="fill:#796e65"/>
  <path d="M158.26887,121.7765v-.04687c0-2.53906,2.09668-3.89063,5.14941-3.89063a12.79622,12.79622,0,0,1,3.70459.5127v-.41992c0-2.167-1.32812-3.28516-3.58838-3.28516a8.3887,8.3887,0,0,0-3.6582.88574l-.53564-1.46777a9.93817,9.93817,0,0,1,4.38037-1.00195,5.28447,5.28447,0,0,1,3.89111,1.32812,4.75416,4.75416,0,0,1,1.23486,3.51758v7.36328h-1.72412v-1.81738a5.28,5.28,0,0,1-4.35742,2.07324C160.52912,125.52748,158.26887,124.24623,158.26887,121.7765Zm8.87744-.93164v-1.165a12.54875,12.54875,0,0,0-3.542-.51269c-2.25977,0-3.51807.97851-3.51807,2.49316v.04688c0,1.51367,1.39795,2.39941,3.02881,2.39941C165.32893,124.10658,167.14631,122.755,167.14631,120.84486Z" style="fill:#796e65"/>
  <path d="M172.61994,113.22572h1.79395v2.09668a4.56223,4.56223,0,0,1,4.124-2.35351c2.9126,0,4.61377,1.957,4.61377,4.82324v7.47949h-1.79443v-7.03711c0-2.23633-1.21143-3.63476-3.33155-3.63476a3.54482,3.54482,0,0,0-3.61181,3.77539v6.89648h-1.79395Z" style="fill:#796e65"/>
  <path d="M192.16584,117.16322v-.04687a8.31867,8.31867,0,1,1,16.63623-.0459v.0459a8.31866,8.31866,0,1,1-16.63623.04687Zm14.72559,0v-.04687a6.48467,6.48467,0,0,0-6.43067-6.7334,6.40731,6.40731,0,0,0-6.38428,6.6875v.0459a6.48491,6.48491,0,0,0,6.43067,6.73437A6.40731,6.40731,0,0,0,206.89143,117.16322Z" style="fill:#796e65"/>
  <path d="M212.807,108.96107h11.72022v1.70118h-9.8794v5.82519h8.83057v1.67774h-8.83057v7.10644H212.807Z" style="fill:#796e65"/>
  <path d="M226.71516,122.89467l1.1416-1.35156a7.76734,7.76734,0,0,0,5.59228,2.30761c2.18994,0,3.63477-1.165,3.63477-2.77343v-.0459c0-1.51465-.81543-2.377-4.24072-3.09961-3.75147-.81543-5.47559-2.02637-5.47559-4.70606v-.04687c0-2.56348,2.26025-4.4502,5.35938-4.4502a8.50867,8.50867,0,0,1,5.73144,2.00391l-1.07178,1.4209A7.165,7.165,0,0,0,232.68,110.383c-2.12012,0-3.47168,1.165-3.47168,2.63281v.04688c0,1.53711.83887,2.39941,4.42725,3.16894,3.63476.792,5.312,2.12012,5.312,4.61328v.0459c0,2.79688-2.32959,4.61426-5.56836,4.61426A9.54171,9.54171,0,0,1,226.71516,122.89467Z" style="fill:#796e65"/>
  <path d="M247.263,119.30678v-.04688a6.27423,6.27423,0,0,1,10.99756-4.14746l-1.18848,1.25879a4.86261,4.86261,0,0,0-3.65771-1.81738,4.44492,4.44492,0,0,0-4.31055,4.66015v.0459a4.50063,4.50063,0,0,0,4.42676,4.6836,4.97024,4.97024,0,0,0,3.68164-1.79395l1.1416,1.07129a6.23154,6.23154,0,0,1-11.09082-3.91406Z" style="fill:#796e65"/>
  <path d="M260.19318,119.30678v-.04688a6.27935,6.27935,0,0,1,12.5586-.0459v.0459a6.25435,6.25435,0,0,1-6.31446,6.291A6.171,6.171,0,0,1,260.19318,119.30678Zm10.71778,0v-.04688a4.558,4.558,0,0,0-4.47364-4.70605A4.44577,4.44577,0,0,0,262.034,119.214v.0459a4.51912,4.51912,0,0,0,4.4502,4.6836A4.44463,4.44463,0,0,0,270.911,119.30678Z" style="fill:#796e65"/>
  <path d="M275.89533,113.22572h1.79395v2.02637a4.40278,4.40278,0,0,1,3.89111-2.2832,4.09172,4.09172,0,0,1,3.86768,2.40039,4.802,4.802,0,0,1,4.24072-2.40039c2.773,0,4.47363,1.86425,4.47363,4.84668v7.45605h-1.79394v-7.03711c0-2.3291-1.165-3.63476-3.12207-3.63476-1.81739,0-3.3086,1.35156-3.3086,3.72851v6.94336h-1.79443v-7.083c0-2.26074-1.188-3.58886-3.09863-3.58886a3.49137,3.49137,0,0,0-3.35547,3.79785v6.874h-1.79395Z" style="fill:#796e65"/>
  <path d="M298.00422,113.22572h1.79394v2.42285a5.41615,5.41615,0,0,1,4.61329-2.67968,5.8757,5.8757,0,0,1,5.75537,6.24511v.0459a5.89694,5.89694,0,0,1-5.75537,6.26758,5.43355,5.43355,0,0,1-4.61329-2.5625v6.03516h-1.79394Zm10.32178,6.05762v-.04687a4.33729,4.33729,0,0,0-4.24073-4.65918,4.49123,4.49123,0,0,0-4.35693,4.63671v.0459a4.48326,4.48326,0,0,0,4.35693,4.66016C306.41535,123.92006,308.326,122.19643,308.326,119.28334Z" style="fill:#796e65"/>
  <path d="M312.44856,121.7765v-.04687c0-2.53906,2.09667-3.89063,5.14941-3.89063a12.79622,12.79622,0,0,1,3.70459.5127v-.41992c0-2.167-1.32813-3.28516-3.58838-3.28516a8.38867,8.38867,0,0,0-3.6582.88574l-.53565-1.46777a9.93824,9.93824,0,0,1,4.38037-1.00195,5.28449,5.28449,0,0,1,3.89112,1.32812,4.75416,4.75416,0,0,1,1.23486,3.51758v7.36328h-1.72412v-1.81738a5.28006,5.28006,0,0,1-4.35742,2.07324C314.70881,125.52748,312.44856,124.24623,312.44856,121.7765Zm8.87744-.93164v-1.165a12.54882,12.54882,0,0,0-3.542-.51269c-2.25976,0-3.51806.97851-3.51806,2.49316v.04688c0,1.51367,1.39795,2.39941,3.02881,2.39941C319.50861,124.10658,321.326,122.755,321.326,120.84486Z" style="fill:#796e65"/>
  <path d="M326.79963,113.22572h1.79394v2.09668a4.56226,4.56226,0,0,1,4.124-2.35351c2.9126,0,4.61377,1.957,4.61377,4.82324v7.47949h-1.79444v-7.03711c0-2.23633-1.21142-3.63476-3.33154-3.63476a3.54483,3.54483,0,0,0-3.61182,3.77539v6.89648h-1.79394Z" style="fill:#796e65"/>
  <path d="M349.46857,113.22572h1.91065l-5.05615,12.44239c-1.02539,2.49316-2.19043,3.40136-4.00782,3.40136a5.48072,5.48072,0,0,1-2.563-.60547l.606-1.42187a3.7697,3.7697,0,0,0,1.88721.44336c1.07178,0,1.74756-.55957,2.46973-2.26074l-5.47559-11.999h1.981l4.38037,10.042Z" style="fill:#796e65"/>
</svg>
